<mxfile host="app.diagrams.net" modified="2022-11-24T03:43:11.377Z" agent="5.0 (Windows NT 6.1; WOW64) AppleWebKit/537.36 (KHTML, like Gecko) Chrome/105.0.0.0 Safari/537.36" etag="cbC-N5b7ibQF85zQE00y" version="20.3.7" type="github">
  <diagram id="e7-rtMHlQm44eAlMgqMn" name="第 1 页">
    <mxGraphModel dx="868" dy="450" grid="1" gridSize="10" guides="1" tooltips="1" connect="1" arrows="1" fold="1" page="1" pageScale="1" pageWidth="827" pageHeight="1169" math="0" shadow="0">
      <root>
        <mxCell id="0" />
        <mxCell id="1" parent="0" />
      </root>
    </mxGraphModel>
  </diagram>
</mxfile>
